<?xml version="1.0" encoding="utf-8"?>
<!-- Generator: Adobe Illustrator 24.0.1, SVG Export Plug-In . SVG Version: 6.00 Build 0)  -->
<svg version="1.1" id="图层_2" xmlns="http://www.w3.org/2000/svg" xmlns:xlink="http://www.w3.org/1999/xlink" x="0px" y="0px"
	 viewBox="0 0 120 120" style="enable-background:new 0 0 120 120;" xml:space="preserve">
<style type="text/css">
	.st0{fill:none;stroke:#333333;stroke-width:3;stroke-linecap:round;stroke-linejoin:round;stroke-miterlimit:10;}
	.st1{fill:none;stroke:#0098F0;stroke-width:3;stroke-linecap:round;stroke-linejoin:round;stroke-miterlimit:10;}
	.st2{display:none;}
	.st3{display:inline;fill:none;stroke:#F98D62;stroke-width:3;stroke-linecap:round;stroke-linejoin:round;stroke-miterlimit:10;}
	.st4{fill:#0098F0;}
	.st5{fill:#78CBF4;stroke:#0081CC;stroke-width:2;stroke-linecap:round;stroke-linejoin:round;stroke-miterlimit:10;}
</style>
<g>
	<line class="st1" x1="37.79" y1="48.87" x2="37.79" y2="71.47"/>
	<path class="st0" d="M76.54,77.62V42.63c0-3.31-3.24-5.64-6.38-4.59l-29.37,9.83c-1.98,0.66-4.06,1-6.15,1h-6.53
		c-5.35,0-9.69,4.34-9.69,9.69v3.23c0,5.35,4.34,9.69,9.69,9.69h6.56c2.07,0,4.13,0.33,6.1,0.99l29.41,9.76"/>
	<g class="st2">
		<path class="st3" d="M84.97,49.03c3.63,1.85,6.11,5.62,6.11,9.97c0,4.35-2.48,8.12-6.11,9.97"/>
		<path class="st3" d="M90.4,39.62c6.68,3.87,11.18,11.1,11.18,19.37S97.08,74.5,90.4,78.37"/>
	</g>
	<line class="st0" x1="27.52" y1="71.47" x2="37.79" y2="81.75"/>
	<g>
		<line class="st1" x1="85.75" y1="61.41" x2="100.28" y2="61.41"/>
		<line class="st1" x1="84.59" y1="51.26" x2="97.18" y2="44"/>
		<line class="st1" x1="84.59" y1="71.56" x2="97.18" y2="78.83"/>
	</g>
</g>
</svg>
