<?xml version="1.0" standalone="no"?><!DOCTYPE svg PUBLIC "-//W3C//DTD SVG 1.1//EN" "http://www.w3.org/Graphics/SVG/1.1/DTD/svg11.dtd"><svg t="1640829690114" class="icon" viewBox="0 0 1024 1024" version="1.1" xmlns="http://www.w3.org/2000/svg" p-id="72214" xmlns:xlink="http://www.w3.org/1999/xlink" width="200" height="200"><defs><style type="text/css"></style></defs><path d="M980.48 547.84c-10.24 0-20.48-2.56-28.16-10.24L586.24 168.96c-15.36-15.36-15.36-38.4 0-53.76s38.4-15.36 53.76 0l368.64 368.64c15.36 15.36 15.36 38.4 0 53.76-7.68 7.68-17.92 10.24-28.16 10.24z" fill="#333333" p-id="72215"></path><path d="M611.84 921.6c-10.24 0-20.48-2.56-28.16-10.24-15.36-15.36-15.36-38.4 0-53.76L954.88 486.4c15.36-15.36 38.4-15.36 53.76 0s15.36 38.4 0 53.76L640 908.8c-7.68 7.68-17.92 12.8-28.16 12.8z" fill="#333333" p-id="72216"></path><path d="M965.12 550.4h-921.6C23.04 550.4 5.12 532.48 5.12 512s17.92-38.4 38.4-38.4h921.6c20.48 0 38.4 17.92 38.4 38.4s-17.92 38.4-38.4 38.4z" fill="#333333" p-id="72217"></path></svg>