<?xml version="1.0" standalone="no"?><!DOCTYPE svg PUBLIC "-//W3C//DTD SVG 1.1//EN" "http://www.w3.org/Graphics/SVG/1.1/DTD/svg11.dtd"><svg t="1640830792640" class="icon" viewBox="0 0 1024 1024" version="1.1" xmlns="http://www.w3.org/2000/svg" p-id="73147" xmlns:xlink="http://www.w3.org/1999/xlink" width="200" height="200"><defs><style type="text/css"></style></defs><path d="M810.666667 760.405333H213.333333c-7.082667 0-12.8-5.717333-12.8-12.8s5.717333-12.8 12.8-12.8h597.333334c7.082667 0 12.8 5.717333 12.8 12.8s-5.717333 12.8-12.8 12.8zM508.928 644.266667c-3.584 0-10.666667-0.170667-16.981333-6.485334L320.768 461.056c-1.024-1.024-2.730667-2.730667-3.925333-5.205333-1.792-3.584-2.048-7.509333-0.853334-11.093334 0.341333-2.474667 1.28-5.461333 3.925334-8.106666 4.096-4.096 9.045333-4.096 11.434666-4.096H433.493333V286.549333c0-7.082667 5.717333-12.8 12.8-12.8s12.8 5.717333 12.8 12.8v158.805334c0 7.082667-5.717333 12.8-12.8 12.8H353.536L509.098667 618.666667c0.085333 0-0.512 0.170667 0.426666-0.085334l160.426667-160.426666H574.976c-7.082667 0-12.8-5.717333-12.8-12.8V286.549333c0-7.082667 5.717333-12.8 12.8-12.8s12.8 5.717333 12.8 12.8v146.005334h104.96c3.413333 0 6.656 1.365333 9.045333 3.754666l2.730667 2.730667c0.426667 0.426667 10.24 10.581333-1.365333 22.186667L526.506667 637.781333c-4.266667 4.266667-11.946667 6.485333-17.237334 6.485334h-0.341333z" p-id="73148" fill="#006ee1"></path></svg>